<?xml version="1.0" encoding="UTF-8" standalone="no"?>
<!DOCTYPE svg PUBLIC "-//W3C//DTD SVG 1.1//EN"
 "http://www.w3.org/Graphics/SVG/1.1/DTD/svg11.dtd">
<!-- Generated by graphviz version 2.38.0 (20140413.2041)
 -->
<!-- Title: G Pages: 1 -->
<svg width="217pt" height="1264pt"
 viewBox="0.00 0.00 217.22 1264.00" xmlns="http://www.w3.org/2000/svg" xmlns:xlink="http://www.w3.org/1999/xlink">
<g id="graph0" class="graph" transform="scale(1 1) rotate(0) translate(4 1260)">
<title>G</title>
<polygon fill="white" stroke="none" points="-4,4 -4,-1260 213.224,-1260 213.224,4 -4,4"/>
<g id="clust1" class="cluster"><title>cluster_Global</title>
<path fill="none" stroke="gray" d="M20,-8C20,-8 189.224,-8 189.224,-8 195.224,-8 201.224,-14 201.224,-20 201.224,-20 201.224,-1236 201.224,-1236 201.224,-1242 195.224,-1248 189.224,-1248 189.224,-1248 20,-1248 20,-1248 14,-1248 8,-1242 8,-1236 8,-1236 8,-20 8,-20 8,-14 14,-8 20,-8"/>
<text text-anchor="middle" x="104.612" y="-1235.2" font-family="Times,serif" font-size="11.00" fill="gray">Global</text>
</g>
<g id="clust2" class="cluster"><title>cluster_\ZayconWhatCounts</title>
<path fill="none" stroke="gray" d="M28,-16C28,-16 181.224,-16 181.224,-16 187.224,-16 193.224,-22 193.224,-28 193.224,-28 193.224,-1209 193.224,-1209 193.224,-1215 187.224,-1221 181.224,-1221 181.224,-1221 28,-1221 28,-1221 22,-1221 16,-1215 16,-1209 16,-1209 16,-28 16,-28 16,-22 22,-16 28,-16"/>
<text text-anchor="middle" x="104.612" y="-1208.2" font-family="Times,serif" font-size="11.00" fill="gray">ZayconWhatCounts</text>
</g>
<!-- \\ZayconWhatCounts\\RelationalColumns -->
<g id="node1" class="node"><title>\\ZayconWhatCounts\\RelationalColumns</title>
<polygon fill="none" stroke="black" points="168.83,-1194 40.3934,-1194 40.3934,-1158 168.83,-1158 168.83,-1194"/>
<text text-anchor="middle" x="104.612" y="-1172.7" font-family="Courier,monospace" font-size="11.00">RelationalColumns</text>
</g>
<!-- \\ZayconWhatCounts\\Campaign -->
<g id="node2" class="node"><title>\\ZayconWhatCounts\\Campaign</title>
<polygon fill="none" stroke="black" points="138.921,-1140 70.303,-1140 70.303,-1104 138.921,-1104 138.921,-1140"/>
<text text-anchor="middle" x="104.612" y="-1118.7" font-family="Courier,monospace" font-size="11.00">Campaign</text>
</g>
<!-- \\ZayconWhatCounts\\CampaignSummary -->
<g id="node3" class="node"><title>\\ZayconWhatCounts\\CampaignSummary</title>
<polygon fill="none" stroke="black" points="162.128,-1086 47.0957,-1086 47.0957,-1050 162.128,-1050 162.128,-1086"/>
<text text-anchor="middle" x="104.612" y="-1064.7" font-family="Courier,monospace" font-size="11.00">CampaignSummary</text>
</g>
<!-- \\ZayconWhatCounts\\Subscriber -->
<g id="node4" class="node"><title>\\ZayconWhatCounts\\Subscriber</title>
<polygon fill="none" stroke="black" points="145.623,-1032 63.6011,-1032 63.6011,-996 145.623,-996 145.623,-1032"/>
<text text-anchor="middle" x="104.612" y="-1010.7" font-family="Courier,monospace" font-size="11.00">Subscriber</text>
</g>
<!-- \\ZayconWhatCounts\\WhatCounts -->
<g id="node5" class="node"><title>\\ZayconWhatCounts\\WhatCounts</title>
<polygon fill="none" stroke="black" points="145.623,-978 63.6011,-978 63.6011,-942 145.623,-942 145.623,-978"/>
<text text-anchor="middle" x="104.612" y="-956.7" font-family="Courier,monospace" font-size="11.00">WhatCounts</text>
</g>
<!-- \\ZayconWhatCounts\\Article -->
<g id="node6" class="node"><title>\\ZayconWhatCounts\\Article</title>
<polygon fill="none" stroke="black" points="135.82,-924 73.4039,-924 73.4039,-888 135.82,-888 135.82,-924"/>
<text text-anchor="middle" x="104.612" y="-902.7" font-family="Courier,monospace" font-size="11.00">Article</text>
</g>
<!-- \\ZayconWhatCounts\\RelationalTable -->
<g id="node7" class="node"><title>\\ZayconWhatCounts\\RelationalTable</title>
<polygon fill="none" stroke="black" points="162.128,-870 47.0957,-870 47.0957,-834 162.128,-834 162.128,-870"/>
<text text-anchor="middle" x="104.612" y="-848.7" font-family="Courier,monospace" font-size="11.00">RelationalTable</text>
</g>
<!-- \\ZayconWhatCounts\\RelationalData -->
<g id="node8" class="node"><title>\\ZayconWhatCounts\\RelationalData</title>
<polygon fill="none" stroke="black" points="159.028,-816 50.196,-816 50.196,-780 159.028,-780 159.028,-816"/>
<text text-anchor="middle" x="104.612" y="-794.7" font-family="Courier,monospace" font-size="11.00">RelationalData</text>
</g>
<!-- \\ZayconWhatCounts\\MailingList -->
<g id="node9" class="node"><title>\\ZayconWhatCounts\\MailingList</title>
<polygon fill="none" stroke="black" points="148.724,-762 60.4992,-762 60.4992,-726 148.724,-726 148.724,-762"/>
<text text-anchor="middle" x="104.612" y="-740.7" font-family="Courier,monospace" font-size="11.00">MailingList</text>
</g>
<!-- \\ZayconWhatCounts\\Template -->
<g id="node10" class="node"><title>\\ZayconWhatCounts\\Template</title>
<polygon fill="none" stroke="black" points="138.921,-708 70.303,-708 70.303,-672 138.921,-672 138.921,-708"/>
<text text-anchor="middle" x="104.612" y="-686.7" font-family="Courier,monospace" font-size="11.00">Template</text>
</g>
<!-- \\ZayconWhatCounts\\Subscription -->
<g id="node11" class="node"><title>\\ZayconWhatCounts\\Subscription</title>
<polygon fill="none" stroke="black" points="152.325,-654 56.8987,-654 56.8987,-618 152.325,-618 152.325,-654"/>
<text text-anchor="middle" x="104.612" y="-632.7" font-family="Courier,monospace" font-size="11.00">Subscription</text>
</g>
<!-- \\ZayconWhatCounts\\Config -->
<g id="node12" class="node"><title>\\ZayconWhatCounts\\Config</title>
<polygon fill="none" stroke="black" points="132.22,-600 77.004,-600 77.004,-564 132.22,-564 132.22,-600"/>
<text text-anchor="middle" x="104.612" y="-578.7" font-family="Courier,monospace" font-size="11.00">Config</text>
</g>
<!-- \\ZayconWhatCounts\\SubscriptionTraits -->
<g id="node13" class="node"><title>\\ZayconWhatCounts\\SubscriptionTraits</title>
<polygon fill="none" stroke="black" points="171.931,-546 37.2924,-546 37.2924,-510 171.931,-510 171.931,-546"/>
<text text-anchor="middle" x="104.612" y="-524.7" font-family="Courier,monospace" font-size="11.00">SubscriptionTraits</text>
</g>
<!-- \\ZayconWhatCounts\\RelationalDataTraits -->
<g id="node14" class="node"><title>\\ZayconWhatCounts\\RelationalDataTraits</title>
<polygon fill="none" stroke="black" points="178.633,-492 30.5903,-492 30.5903,-456 178.633,-456 178.633,-492"/>
<text text-anchor="middle" x="104.612" y="-470.7" font-family="Courier,monospace" font-size="11.00">RelationalDataTraits</text>
</g>
<!-- \\ZayconWhatCounts\\ArticleTraits -->
<g id="node15" class="node"><title>\\ZayconWhatCounts\\ArticleTraits</title>
<polygon fill="none" stroke="black" points="155.426,-438 53.7977,-438 53.7977,-402 155.426,-402 155.426,-438"/>
<text text-anchor="middle" x="104.612" y="-416.7" font-family="Courier,monospace" font-size="11.00">ArticleTraits</text>
</g>
<!-- \\ZayconWhatCounts\\RelationalColumnTraits -->
<g id="node16" class="node"><title>\\ZayconWhatCounts\\RelationalColumnTraits</title>
<polygon fill="none" stroke="black" points="185.336,-384 23.888,-384 23.888,-348 185.336,-348 185.336,-384"/>
<text text-anchor="middle" x="104.612" y="-362.7" font-family="Courier,monospace" font-size="11.00">RelationalColumnTraits</text>
</g>
<!-- \\ZayconWhatCounts\\RelationalTableTraits -->
<g id="node17" class="node"><title>\\ZayconWhatCounts\\RelationalTableTraits</title>
<polygon fill="none" stroke="black" points="181.735,-330 27.4888,-330 27.4888,-294 181.735,-294 181.735,-330"/>
<text text-anchor="middle" x="104.612" y="-308.7" font-family="Courier,monospace" font-size="11.00">RelationalTableTraits</text>
</g>
<!-- \\ZayconWhatCounts\\SubscriberTraits -->
<g id="node18" class="node"><title>\\ZayconWhatCounts\\SubscriberTraits</title>
<polygon fill="none" stroke="black" points="165.23,-276 43.994,-276 43.994,-240 165.23,-240 165.23,-276"/>
<text text-anchor="middle" x="104.612" y="-254.7" font-family="Courier,monospace" font-size="11.00">SubscriberTraits</text>
</g>
<!-- \\ZayconWhatCounts\\ListTraits -->
<g id="node19" class="node"><title>\\ZayconWhatCounts\\ListTraits</title>
<polygon fill="none" stroke="black" points="145.623,-222 63.6011,-222 63.6011,-186 145.623,-186 145.623,-222"/>
<text text-anchor="middle" x="104.612" y="-200.7" font-family="Courier,monospace" font-size="11.00">ListTraits</text>
</g>
<!-- \\ZayconWhatCounts\\TemplateTraits -->
<g id="node20" class="node"><title>\\ZayconWhatCounts\\TemplateTraits</title>
<polygon fill="none" stroke="black" points="159.028,-168 50.196,-168 50.196,-132 159.028,-132 159.028,-168"/>
<text text-anchor="middle" x="104.612" y="-146.7" font-family="Courier,monospace" font-size="11.00">TemplateTraits</text>
</g>
<!-- \\ZayconWhatCounts\\CampaignTraits -->
<g id="node21" class="node"><title>\\ZayconWhatCounts\\CampaignTraits</title>
<polygon fill="none" stroke="black" points="159.028,-114 50.196,-114 50.196,-78 159.028,-78 159.028,-114"/>
<text text-anchor="middle" x="104.612" y="-92.7" font-family="Courier,monospace" font-size="11.00">CampaignTraits</text>
</g>
<!-- \\ZayconWhatCounts\\ActionsTraits -->
<g id="node22" class="node"><title>\\ZayconWhatCounts\\ActionsTraits</title>
<polygon fill="none" stroke="black" points="155.426,-60 53.7977,-60 53.7977,-24 155.426,-24 155.426,-60"/>
<text text-anchor="middle" x="104.612" y="-38.7" font-family="Courier,monospace" font-size="11.00">ActionsTraits</text>
</g>
</g>
</svg>
